<svg xmlns="http://www.w3.org/2000/svg" viewBox="0 17.2 82.9067 59.2"><title>Smarstupp logo - small</title><path d="M18.9966,17.1827H20.439q7.623,0,13.9687,6.47a19.5741,19.5741,0,0,1,5.1094,13.0616v.33q0,9.9726-8.8594,16.4a19.5039,19.5039,0,0,1-10.7949,3.2548h-.33a20.2926,20.2926,0,0,1-9.0654-2.2656v21.88a.1456.1456,0,0,1-.1236.1648.1439.1439,0,0,1-.04,0H.1665a.146.146,0,0,1-.1651-.165V36.1788q0-7.418,6.3457-13.8867Q12.5274,17.1842,18.9966,17.1827Zm.6182,10.5488h-.37q-4.5747,0-7.7061,4.8624a10.798,10.798,0,0,0-1.0713,4.3671q0,5.3994,5.3574,8.3653a9.4523,9.4523,0,0,0,3.708.8242h.4122q5.1093,0,8.0351-5.0274a8.6863,8.6863,0,0,0,.9883-3.9971v-.4121q0-5.0259-5.0264-8.0762a9.2952,9.2952,0,0,0-3.6679-.9063h-.4112a.0727.0727,0,0,1-.0829-.061.0739.0739,0,0,1,0-.021Z" fill="#3598dc"/><path d="M62.3862,17.1827h1.4423q7.6232,0,13.9688,6.47a19.5736,19.5736,0,0,1,5.1094,13.0616v.33q0,9.9726-8.8594,16.4a19.5034,19.5034,0,0,1-10.7949,3.2548h-.33a20.2926,20.2926,0,0,1-9.0654-2.2656v21.88a.146.146,0,0,1-.1641.165H43.5562a.146.146,0,0,1-.1651-.124.1408.1408,0,0,1,0-.041V36.1788q0-7.418,6.3457-13.8867Q55.917,17.1842,62.3862,17.1827Zm.6181,10.5488h-.37q-4.5747,0-7.7059,4.8624a10.798,10.798,0,0,0-1.0713,4.3671q0,5.3994,5.3574,8.3653a9.452,9.452,0,0,0,3.708.8242h.4121q5.1094,0,8.0352-5.0274a8.6873,8.6873,0,0,0,.9881-3.9971v-.4121q0-5.0259-5.0263-8.0762a9.2953,9.2953,0,0,0-3.668-.9063h-.4111a.0727.0727,0,0,1-.0828-.061.0739.0739,0,0,1,0-.021Z" fill="#3598dc"/><circle cx="19.7797" cy="36.3009" r="13" fill="#fff"/><path d="M19.3944,27.8237a6.3619,6.3619,0,0,0-2.5891.5513,2.9277,2.9277,0,1,1-3.394,3.6165,6.3827,6.3827,0,1,0,5.9831-4.1678Z" fill="#454644"/><circle cx="62.7797" cy="36.3009" r="13" fill="#fff"/><path d="M62.3944,27.8237a6.3619,6.3619,0,0,0-2.5891.5513,2.9277,2.9277,0,1,1-3.394,3.6165,6.3827,6.3827,0,1,0,5.9831-4.1678Z" fill="#454644"/></svg>