<?xml version="1.0" encoding="utf-8"?>
<!-- Generator: Adobe Illustrator 23.0.3, SVG Export Plug-In . SVG Version: 6.00 Build 0)  -->
<svg version="1.1" baseProfile="basic" id="Layer_1"
	 xmlns="http://www.w3.org/2000/svg" xmlns:xlink="http://www.w3.org/1999/xlink" x="0px" y="0px" viewBox="0 0 296.5 85"
	 xml:space="preserve">
<style type="text/css">
	.st0{fill:#2C3C45;}
	.st1{fill:#4088E6;}
	.st2{fill:#FFFFFF;}
</style>
<g>
	<path class="st0" d="M34.6,21.3H50l0.1,0.1v6.2L50,27.7l0,0H35.7c-1.6,0-2.6,0.5-3.1,1.6c-0.2,0.4-0.3,0.8-0.3,1.2
		c0,1.3,0.7,2.2,2.2,2.7c0.2,0,0.4,0,0.6,0.1h7.7c4.7,0,8.4,2.1,10.9,6.2c0.9,1.6,1.4,3.4,1.5,5.2v1.4c0,2.6-1.2,5.3-3.5,7.8
		c-2.6,2.3-5.2,3.5-7.8,3.5H26l-0.1-0.1l0,0V51l0.1-0.1h17c2.6,0,4.5-1.3,5.6-4c0.1-0.5,0.2-1,0.2-1.6c0-2.3-1.1-4-3.3-5.1
		c-0.8-0.4-1.7-0.6-2.6-0.5H35c-3.1,0-5.6-1.4-7.6-4.2c-0.9-1.4-1.4-3-1.4-4.6V30c0-2,0.8-3.9,2.4-5.8
		C30.4,22.2,32.5,21.3,34.6,21.3z"/>
	<path class="st0" d="M68.9,33.2h0.9c3,0,5.8,1.3,8.4,3.8c2.6-2.6,5.4-3.8,8.4-3.8h0.9c3,0,5.8,1.3,8.4,3.8c1.3,1.5,2.3,3.2,2.8,5.1
		c0.2,0.8,0.3,1.6,0.4,2.5v12.6L99,57.3l0,0h-6.2l-0.1-0.1V45.3c0-2.6-1.3-4.5-4-5.5c-0.4-0.1-0.9-0.2-1.3-0.2h-0.3H87l0,0h-0.1
		h-0.3c-1.8,0-3.4,1-4.7,2.9c-0.4,0.9-0.7,1.9-0.7,3v11.7l-0.1,0.1l0,0H75l-0.1-0.1l0,0V45.1c0-2-1-3.7-3.1-4.9
		c-0.7-0.4-1.5-0.5-2.3-0.6h-0.3h-0.1l0,0H69l0,0c-1.9,0-3.4,1-4.7,3c-0.5,0.7-0.7,2-0.7,3.8v10.8l-0.1,0.1l0,0h-6.2l-0.1-0.1l0,0
		V44.8c0-3.2,1.4-6.1,4.2-8.8C63.9,34.1,66.4,33.2,68.9,33.2z"/>
	<path class="st0" d="M112.9366,33.4057h0.8769c3.0756,0,5.8999,1.3042,8.4731,3.9111c1.979,2.166,3.0859,4.9868,3.1079,7.9199
		v12.0581l-0.0752,0.0996h-0.0249h-6.1919l-0.1001-0.0742v-0.0254v-1.2793c-1.708,0.9004-3.6089,1.3731-5.539,1.3789h-0.2261
		c-3.0078-0.0185-5.894-1.1836-8.0708-3.2588c-2.5073-2.54-3.7612-5.3134-3.7612-8.3217v-0.8775
		c0-2.9907,1.2871-5.7988,3.8613-8.4228C107.7565,34.4428,110.3126,33.4057,112.9366,33.4057z M113.0875,39.7977
		c-1.856,0-3.4092,0.9859-4.6631,2.9581c-0.4131,0.8178-0.645,1.7158-0.6768,2.6318c0,2.1885,1.0869,3.8857,3.2588,5.0879
		c0.6982,0.331,1.459,0.5107,2.231,0.5273h0.2759c2.0722,0,3.6933-1.0185,4.8633-3.0576c0.4067-0.7461,0.622-1.5825,0.6259-2.4326
		v-0.2759c0-2.021-1.019-3.6421-3.0581-4.8618c-0.6938-0.3491-1.4551-0.5464-2.23-0.5772H113.0875z"/>
	<path class="st0" d="M139.6,32.8h7.5l0.1,0.1v6.3l-0.1,0.1l0,0h-6c-2.3,0-3.9,0.5-4.7,1.4c-0.6,0.5-1.1,1.1-1.5,1.9
		c-0.4,0.7-0.6,1.9-0.6,3.5v11.1l-0.1,0.1l0,0H128l-0.1-0.1l0,0V44.6c0-3,1.3-5.9,3.9-8.6C134.4,33.9,137,32.8,139.6,32.8z"/>
	<path class="st0" d="M149.5,21.3h6.1l0.1,0.1v11.9h7.5l0.1,0.1v6.2l-0.1,0.1l0,0h-7.5v4.6c0,2,0.3,3.4,1,4.2
		c1.1,1.6,2.8,2.5,5.1,2.5h1.4l0.1,0.1l0,0v6.1l-0.1,0.1l0,0h-2.3c-2.7,0-5.4-1.1-7.9-3.4c-2.4-2.5-3.6-5.3-3.6-8.2L149.5,21.3
		L149.5,21.3z"/>
	<path class="st1" d="M193.7,33.3h6.1l0.1,0.1v10.9c0,2.1,0.4,3.6,1.2,4.4c1,1.3,2.6,2.1,4.3,2.1h0.3c2.2,0,3.9-1.1,5.1-3.4
		c0.2-0.7,0.4-1.4,0.4-2.1v-12l0.1-0.1h6.2l0.1,0.1v11.9c0,4.2-1.9,7.6-5.7,10.2c-1.8,1.1-4,1.8-6.1,1.8h-0.3
		c-3.7,0-6.9-1.6-9.5-4.9c-1.4-1.9-2.2-4.2-2.3-6.6V33.4L193.7,33.3z"/>
	<path class="st1" d="M231.7,31.7h0.9c3.1,0,5.9,1.3,8.5,3.9c2,2.2,3.1,5,3.1,7.9v0.2c0,4-1.8,7.4-5.4,10c-1.9,1.3-4.2,2-6.6,2H232
		c-1.9,0-3.8-0.5-5.5-1.4v13.3l-0.1,0.1l0,0h-6.2l-0.1-0.1l0,0V43.3c0-3,1.3-5.8,3.9-8.4C226.5,32.7,229.1,31.7,231.7,31.7z
		 M232.1,38.1h-0.2c-1.9,0-3.4,1-4.7,3c-0.4,0.8-0.6,1.7-0.7,2.7c0,2.2,1.1,3.9,3.3,5.1c0.7,0.3,1.5,0.5,2.3,0.5h0.3
		c2.1,0,3.7-1,4.9-3.1c0.4-0.8,0.6-1.6,0.6-2.4v-0.3c0-2-1-3.7-3.1-4.9c-0.7-0.3-1.5-0.5-2.2-0.6h-0.3H232.1L232.1,38.1L232.1,38.1z
		"/>
	<path class="st1" d="M258.1,31.7h0.9c3.1,0,5.9,1.3,8.5,3.9c2,2.2,3.1,5,3.1,7.9v0.2c0,4-1.8,7.4-5.4,10c-1.9,1.3-4.2,2-6.6,2h-0.2
		c-1.9,0-3.8-0.5-5.5-1.4v13.3l-0.1,0.1l0,0h-6.2l-0.1-0.1l0,0V43.3c0-3,1.3-5.8,3.9-8.4C252.9,32.7,255.5,31.7,258.1,31.7z
		 M258.5,38.1h-0.2c-1.9,0-3.4,1-4.7,3c-0.4,0.8-0.6,1.7-0.7,2.7c0,2.2,1.1,3.9,3.3,5.1c0.7,0.3,1.5,0.5,2.3,0.5h0.3
		c2.1,0,3.7-1,4.9-3.1c0.4-0.8,0.6-1.6,0.6-2.4v-0.3c0-2-1-3.7-3.1-4.9c-0.7-0.3-1.5-0.5-2.2-0.6h-0.3l0,0l0,0H258.5z"/>
	<path class="st2" d="M232.2,35.4c4.4,0,7.9,3.5,7.9,7.9s-3.5,7.9-7.9,7.9s-7.9-3.5-7.9-7.9C224.2,39,227.8,35.4,232.2,35.4z"/>
	<path class="st0" d="M231.9,38.2c-0.5,0-1.1,0.1-1.6,0.3c1,0.2,1.6,1.1,1.4,2.1c-0.2,1-1.1,1.6-2.1,1.4c-0.7-0.1-1.2-0.6-1.4-1.3
		c-0.7,2,0.3,4.2,2.3,5c2,0.7,4.2-0.3,5-2.3c0.7-2-0.3-4.2-2.3-5C232.8,38.3,232.4,38.2,231.9,38.2z"/>
	<path class="st2" d="M258.3,35.4c4.4,0,7.9,3.5,7.9,7.9s-3.5,7.9-7.9,7.9s-7.9-3.5-7.9-7.9C250.4,39,253.9,35.4,258.3,35.4z"/>
	<path class="st0" d="M258.1,38.2c-0.5,0-1.1,0.1-1.6,0.3c1,0.2,1.6,1.1,1.4,2.1s-1.1,1.6-2.1,1.4c-0.7-0.1-1.2-0.6-1.4-1.3
		c-0.7,2,0.3,4.2,2.3,5c2,0.7,4.2-0.3,5-2.3c0.7-2-0.3-4.2-2.3-5C259,38.3,258.5,38.2,258.1,38.2z"/>
	<path class="st1" d="M174.7,39h13.6v-5.8h-13.6c-4.1,0-7.4,3.3-7.4,7.4s3.3,7.4,7.4,7.4l0,0h9c0.9,0,1.6,0.7,1.6,1.6
		c0,0.9-0.7,1.6-1.6,1.6h-16.4V57h16.4c4.1,0,7.4-3.3,7.4-7.3c0-4.1-3.3-7.4-7.3-7.4l0,0h-9c-0.9,0-1.6-0.7-1.6-1.6
		C173.1,39.7,173.8,39,174.7,39z"/>
</g>
</svg>
