<svg xmlns="http://www.w3.org/2000/svg" viewBox="0 0 402.1055 76.4775"><title>Smartsupp logo</title><path d="M14.2983,0H39.6807c.1093.0283.1645.083.1645.165V10.3018a.1456.1456,0,0,1-.1645.165H16.07q-3.9147,0-5.1094,2.5957a6.0751,6.0751,0,0,0-.4941,2.0186q0,3.2138,3.5845,4.4912a6.8763,6.8763,0,0,0,.9477.083H27.69q11.66,0,17.9244,10.1367a19.0406,19.0406,0,0,1,2.4311,8.5293v2.2656q0,6.5112-5.6865,12.8975-6.3874,5.6865-12.897,5.6865H.165A.1456.1456,0,0,1,0,59.0059V48.8691c.0269-.1093.0825-.164.165-.164H28.1021q6.51,0,9.1474-6.5928a16.6772,16.6772,0,0,0,.33-2.5967q0-5.6029-5.439-8.4463a9.1616,9.1616,0,0,0-4.2031-.8652H14.9165q-7.5828,0-12.5679-6.9228A14.794,14.794,0,0,1,0,15.6582V14.2988Q0,9.4781,3.9971,4.78,8.9417.0005,14.2983,0Z" fill="#454644"/><path d="M70.5845,19.6143h1.4013q7.4986,0,13.8448,6.3037,6.3867-6.3033,13.8037-6.3037h1.4424q7.4164,0,13.7622,6.2216A20.6657,20.6657,0,0,1,119.4951,34.2a17.011,17.011,0,0,1,.6182,4.0381V59.0059a.1458.1458,0,0,1-.1651.165H109.812c-.1377,0-.206-.0547-.206-.165V39.5576q0-6.4687-6.51-9.0654a8.981,8.981,0,0,0-2.1841-.33H100.5a.0723.0723,0,0,1-.0825-.082l-.1646.082H99.84q-4.45,0-7.664,4.78a10.8831,10.8831,0,0,0-1.0713,4.8623V59.0059a.146.146,0,0,1-.1651.165H80.7212a.1456.1456,0,0,1-.165-.165v-19.86q0-4.9863-5.0269-8.0351a9.022,9.022,0,0,0-3.7085-.9483h-.4121a.0723.0723,0,0,1-.0825-.082l-.1646.082h-.33q-4.6156,0-7.7055,4.8623-1.1126,1.8135-1.1123,6.2227V59.0059a.146.146,0,0,1-.1651.165H51.7129a.1456.1456,0,0,1-.165-.165V38.7334q0-7.9116,6.8813-14.4219Q64.4028,19.6138,70.5845,19.6143Z" fill="#454644"/><path d="M142.9819,19.7373h1.4419q7.5813,0,13.9273,6.4287A19.5249,19.5249,0,0,1,163.46,39.1865V59.0059a.1456.1456,0,0,1-.1645.165H153.1182a.1458.1458,0,0,1-.1651-.165V56.9043a19.6758,19.6758,0,0,1-9.1059,2.2666h-.3711a19.4143,19.4143,0,0,1-13.2681-5.3564q-6.1809-6.2637-6.1807-13.6807V38.6924q0-7.3755,6.3457-13.8457Q136.5122,19.7388,142.9819,19.7373Zm.5767,10.5078h-.33q-4.574,0-7.6641,4.8623a10.398,10.398,0,0,0-1.1128,4.3262q0,5.3979,5.357,8.3643a9,9,0,0,0,3.667.8662h.4531q5.1093,0,7.9941-5.0274a8.4153,8.4153,0,0,0,1.03-3.9971v-.4531q0-4.9848-5.0268-7.9941a8.95,8.95,0,0,0-3.667-.9473h-.4121a.0728.0728,0,0,1-.0826-.083Z" fill="#454644"/><path d="M186.9067,19.0371h12.2788c.1094.0274.1651.082.1651.165V29.5029a.1461.1461,0,0,1-.1651.1651h-9.8066q-5.6456,0-7.7466,2.3076a7.8374,7.8374,0,0,0-2.4311,3.0488q-.9486,1.7314-.9478,5.7686V59.0059a.1456.1456,0,0,1-.1645.165H167.7876a.1456.1456,0,0,1-.165-.165V38.3213q0-7.5,6.4692-14.0928Q180.3548,19.0372,186.9067,19.0371Z" fill="#454644"/><path d="M203.1826.041h10.0947c.1094.0283.1651.083.1651.1651V19.7373h12.2793c.1094.0283.165.083.165.165V30.1211a.146.146,0,0,1-.165.165H213.4424v7.4991q0,4.9452,1.6894,6.9228,2.72,4.0386,8.3643,4.0381h2.2256a.1464.1464,0,0,1,.165.165V59.0059a.146.146,0,0,1-.165.165H221.89q-6.7587,0-12.9384-5.5215-5.9341-6.2622-5.9336-13.4326V.2061C203.0444.0967,203.1.041,203.1826.041Z" fill="#454644"/><path d="M275.73,19.8613h10.0947c.1094.0274.1651.0821.1651.1651V37.8682q0,5.1913,1.9775,7.2929a8.932,8.932,0,0,0,7.0049,3.503h.4121q5.3979,0,8.3242-5.5635a10.5511,10.5511,0,0,0,.6592-3.42V20.0264c.0264-.1094.082-.1651.1641-.1651H314.709c.1094.0274.165.0821.165.1651V39.5156q0,10.3843-9.3125,16.73a19.4538,19.4538,0,0,1-10.0947,2.9258h-.4951q-9.1465,0-15.6572-7.9941a19.5494,19.5494,0,0,1-3.75-10.837V20.0264C275.5918,19.917,275.6465,19.8613,275.73,19.8613Z" fill="#3598dc"/><path d="M338.1953,17.1826h1.4424q7.623,0,13.9687,6.47a19.5738,19.5738,0,0,1,5.1094,13.0616v.33q0,9.9727-8.8594,16.3995a19.5026,19.5026,0,0,1-10.7949,3.2548h-.33a20.2918,20.2918,0,0,1-9.0654-2.2656v21.88a.1457.1457,0,0,1-.164.165H319.3652a.146.146,0,0,1-.165-.165V36.1787q0-7.4179,6.3457-13.8867Q331.7261,17.1841,338.1953,17.1826Zm.6182,10.5488h-.37q-4.5747,0-7.7061,4.8624a10.7985,10.7985,0,0,0-1.0713,4.3671q0,5.3994,5.3574,8.3653a9.45,9.45,0,0,0,3.708.8242h.4122q5.1093,0,8.0351-5.0274a8.686,8.686,0,0,0,.9883-3.997v-.4121q0-5.0259-5.0264-8.0762a9.2944,9.2944,0,0,0-3.6679-.9063h-.4112a.0728.0728,0,0,1-.083-.082Z" fill="#3598dc"/><path d="M381.585,17.1826h1.4423q7.6231,0,13.9688,6.47a19.5743,19.5743,0,0,1,5.1094,13.0616v.33q0,9.9727-8.8594,16.3995a19.5031,19.5031,0,0,1-10.7949,3.2548h-.33a20.2918,20.2918,0,0,1-9.0654-2.2656v21.88a.1457.1457,0,0,1-.1641.165H362.7549a.146.146,0,0,1-.1651-.165V36.1787q0-7.4179,6.3457-13.8867Q375.1158,17.1841,381.585,17.1826Zm.6181,10.5488h-.37q-4.5747,0-7.706,4.8624a10.7985,10.7985,0,0,0-1.0713,4.3671q0,5.3994,5.3574,8.3653a9.45,9.45,0,0,0,3.708.8242h.4121q5.1094,0,8.0352-5.0274a8.6871,8.6871,0,0,0,.9882-3.997v-.4121q0-5.0259-5.0263-8.0762a9.2944,9.2944,0,0,0-3.668-.9063h-.4111a.0728.0728,0,0,1-.083-.082Z" fill="#3598dc"/><circle cx="338.9785" cy="36.3008" r="13" fill="#fff"/><path d="M338.5932,27.8236a6.3631,6.3631,0,0,0-2.5891.5513,2.9277,2.9277,0,1,1-3.394,3.6165,6.3825,6.3825,0,1,0,5.9831-4.1678Z" fill="#454644"/><circle cx="381.9785" cy="36.3008" r="13" fill="#fff"/><path d="M381.5932,27.8236a6.3631,6.3631,0,0,0-2.5891.5513,2.9277,2.9277,0,1,1-3.394,3.6165,6.3825,6.3825,0,1,0,5.9831-4.1678Z" fill="#454644"/><path d="M244.5791,29.1182h22.3994V19.6426H244.5791a12.1006,12.1006,0,1,0,0,24.2012h14.7852a2.6255,2.6255,0,0,1,0,5.2509H232.4785V58.57h26.8858a12.1011,12.1011,0,1,0,0-24.2021H244.5791a2.625,2.625,0,0,1,0-5.25Z" fill="#3598dc"/></svg>