<?xml version="1.0" encoding="utf-8"?>
<!-- Generator: Adobe Illustrator 23.0.1, SVG Export Plug-In . SVG Version: 6.00 Build 0)  -->
<svg version="1.1" id="Vrstva_1" xmlns="http://www.w3.org/2000/svg" xmlns:xlink="http://www.w3.org/1999/xlink" x="0px" y="0px"
	 viewBox="0 0 142.6 27.1" style="enable-background:new 0 0 142.6 27.1;" xml:space="preserve">
<style type="text/css">
	.st0{fill:#4088E6;}
	.st1{fill:#323E48;}
	.st2{fill:#FFFFFF;}
</style>
<g id="smartsupp-logo" transform="translate(-48.57 -30.27)">
	<path id="Path_32" class="st0" d="M146.3,37.3h3.6c0,0,0.1,0,0.1,0.1v6.3c-0.1,0.9,0.2,1.8,0.7,2.6c0.6,0.8,1.5,1.2,2.5,1.2h0.1
		c1.3,0,2.5-0.8,2.9-2c0.1-0.4,0.2-0.8,0.2-1.2v-7c0,0,0-0.1,0.1-0.1h3.6c0,0,0.1,0,0.1,0.1v6.9c0,3.8-3.1,6.9-6.9,7h-0.2
		c-3.7,0-6.8-3-6.9-6.7L146.3,37.3C146.3,37.3,146.3,37.3,146.3,37.3z"/>
	<path id="Path_33" class="st0" d="M168.5,36.4h0.5c1.9,0,3.7,0.9,5,2.3c1.2,1.3,1.8,2.9,1.8,4.6v0.1c0,3.8-3.1,7-7,7h-0.1
		c-1.1,0-2.2-0.3-3.2-0.8v7.8c0,0,0,0.1,0,0.1h-3.6c0,0-0.1,0-0.1,0V43.1C161.9,39.4,164.8,36.5,168.5,36.4z M168.7,40.1h-0.1
		c-1.2,0-2.2,0.7-2.7,1.7c-0.2,0.5-0.4,1-0.4,1.5c0,1.3,0.7,2.4,1.9,3c0.4,0.2,0.9,0.3,1.3,0.3h0.1c1.2,0,2.3-0.7,2.9-1.8
		c0.2-0.4,0.3-0.9,0.3-1.4v-0.1c0-1.7-1.4-3.1-3.1-3.2H168.7C168.8,40.1,168.8,40.1,168.7,40.1C168.8,40.1,168.8,40.1,168.7,40.1
		L168.7,40.1L168.7,40.1z"/>
	<path id="Path_34" class="st0" d="M183.9,36.4h0.5c1.9,0,3.7,0.9,5,2.3c1.2,1.3,1.8,2.9,1.8,4.6v0.1c0,3.8-3.1,7-7,7h-0.1
		c-1.1,0-2.2-0.3-3.2-0.8v7.8c0,0,0,0.1,0,0.1h-3.6c0,0-0.1,0-0.1,0V43.1C177.2,39.4,180.2,36.5,183.9,36.4z M184.1,40.1H184
		c-1.2,0-2.2,0.7-2.7,1.7c-0.2,0.5-0.4,1-0.4,1.5c0,1.3,0.7,2.4,1.9,3c0.4,0.2,0.9,0.3,1.3,0.3h0.1c1.2,0,2.3-0.7,2.9-1.8
		c0.2-0.4,0.3-0.9,0.3-1.4v-0.1c0-1.7-1.4-3.1-3.1-3.2H184.1C184.2,40.1,184.2,40.1,184.1,40.1C184.2,40.1,184.2,40.1,184.1,40.1
		L184.1,40.1L184.1,40.1z"/>
	<path id="Path_37" class="st0" d="M135.3,40.6h7.9v-3.4h-7.9c-2.4,0-4.3,1.9-4.3,4.3c0,2.4,1.9,4.3,4.3,4.3h5.2
		c0.5,0,0.9,0.4,0.9,0.9c0,0.5-0.4,0.9-0.9,0.9H131V51h9.5c2.4,0,4.3-1.9,4.3-4.3c0-2.4-1.9-4.3-4.3-4.3h-5.3
		c-0.5,0-0.9-0.4-0.9-0.9S134.8,40.6,135.3,40.6z"/>
	<path id="Path_27" class="st1" d="M53.6,30.3h9c0,0,0.1,0,0.1,0.1v3.6c0,0,0,0.1,0,0.1h-8.4c-0.7-0.1-1.5,0.3-1.8,0.9
		c-0.1,0.2-0.2,0.5-0.2,0.7c0,0.8,0.5,1.4,1.3,1.6c0.1,0,0.2,0,0.3,0h4.5c2.6-0.1,5.1,1.3,6.4,3.6c0.5,0.9,0.8,2,0.9,3v0.8
		c-0.2,3.6-3,6.4-6.6,6.6H48.6c0,0-0.1,0-0.1-0.1v-3.6c0,0,0-0.1,0.1-0.1h9.9c1.5,0,2.8-0.9,3.2-2.3c0.1-0.3,0.1-0.6,0.1-0.9
		c0-1.3-0.7-2.5-1.9-3c-0.5-0.2-1-0.3-1.5-0.3h-4.6c-1.8,0-3.5-0.9-4.5-2.5c-0.5-0.8-0.8-1.7-0.8-2.7v-0.5c0-1.3,0.6-2.5,1.4-3.4
		C50.9,30.9,52.2,30.3,53.6,30.3z"/>
	<path id="Path_28" class="st1" d="M73.6,37.2h0.5c1.9,0,3.6,0.9,4.9,2.2c1.3-1.4,3-2.2,4.9-2.2h0.5c1.9,0,3.6,0.8,4.9,2.2
		c0.8,0.8,1.3,1.9,1.7,3c0.1,0.5,0.2,0.9,0.2,1.4v7.4c0,0,0,0.1,0,0.1h-3.6c0,0-0.1,0-0.1-0.1v-6.9c0-1.5-0.9-2.8-2.3-3.2
		C84.9,41,84.6,41,84.4,41h-0.1c0,0,0,0,0,0c0,0,0,0,0,0v0l-0.1,0H84c-1.1,0.1-2.2,0.7-2.7,1.7c-0.3,0.5-0.4,1.1-0.4,1.7v6.8
		c0,0,0,0.1,0,0.1h-3.6c0,0-0.1,0-0.1,0v-7.1c0-1.2-0.7-2.3-1.8-2.8C74.9,41.1,74.5,41,74,41h-0.1c0,0,0,0,0,0c0,0,0,0,0,0v0l-0.1,0
		h-0.1c-1.2,0-2.2,0.7-2.7,1.7c-0.3,0.7-0.5,1.4-0.4,2.2v6.3c0,0,0,0.1,0,0.1h-3.6c0,0-0.1,0-0.1,0V44
		C66.9,40.3,69.9,37.3,73.6,37.2L73.6,37.2z"/>
	<path id="Path_29" class="st1" d="M99.3,37.3h0.5c1.9,0,3.7,0.9,4.9,2.3c1.2,1.3,1.8,2.9,1.8,4.6v7c0,0,0,0.1,0,0.1h-3.6
		c0,0-0.1,0-0.1,0v-0.8c-1,0.5-2.1,0.8-3.2,0.8h-0.1c-1.8,0-3.4-0.7-4.7-1.9c-1.4-1.3-2.2-3-2.2-4.9V44
		C92.7,40.3,95.6,37.4,99.3,37.3L99.3,37.3z M99.5,41h-0.1c-1.2,0-2.2,0.7-2.7,1.7c-0.2,0.5-0.4,1-0.4,1.5c0,1.8,1.4,3.2,3.2,3.3
		h0.2c1.2,0,2.3-0.7,2.8-1.8c0.2-0.4,0.4-0.9,0.4-1.4v-0.2c0-1.7-1.4-3.1-3.1-3.2h-0.1C99.6,41,99.6,41,99.5,41
		C99.6,41,99.6,41,99.5,41L99.5,41L99.5,41z"/>
	<path id="Path_30" class="st1" d="M114.8,37h4.4c0,0,0.1,0,0.1,0.1v3.7c0,0,0,0.1,0,0.1h-3.5c-1-0.1-2,0.2-2.7,0.8
		c-0.4,0.3-0.7,0.7-0.9,1.1c-0.3,0.6-0.4,1.3-0.3,2v6.5c0,0,0,0.1,0,0.1h-3.7c0,0-0.1,0-0.1,0v-7.4C108.1,40.1,111.1,37.1,114.8,37z
		"/>
	<path id="Path_31" class="st1" d="M120.6,30.3h3.6c0,0,0.1,0,0.1,0.1v6.9h4.4c0,0,0.1,0,0.1,0.1V41c0,0,0,0.1,0,0.1h-4.4v2.7
		c-0.1,0.9,0.1,1.7,0.6,2.5c0.7,1,1.8,1.5,3,1.4h0.8c0,0,0.1,0,0.1,0v3.6c0,0,0,0.1,0,0.1h-1.4c-3.7-0.1-6.6-3.1-6.7-6.7L120.6,30.3
		C120.6,30.3,120.6,30.3,120.6,30.3z"/>
	<circle id="Ellipse_4" class="st2" cx="168.8" cy="43.1" r="4.6"/>
	<path id="Path_35" class="st1" d="M168.6,40.1c-0.3,0-0.6,0.1-0.9,0.2c0.6,0.1,0.9,0.7,0.8,1.2c-0.1,0.6-0.7,0.9-1.2,0.8
		c-0.4-0.1-0.7-0.4-0.8-0.8c-0.4,1.2,0.2,2.5,1.3,2.9c1.2,0.4,2.5-0.2,2.9-1.3c0.4-1.2-0.2-2.5-1.3-2.9
		C169.2,40.2,168.9,40.1,168.6,40.1L168.6,40.1z"/>
	<circle id="Ellipse_5" class="st2" cx="184" cy="43.1" r="4.6"/>
	<path id="Path_36" class="st1" d="M183.9,40.1c-0.3,0-0.6,0.1-0.9,0.2c0.6,0.1,0.9,0.7,0.8,1.2c-0.1,0.6-0.7,0.9-1.2,0.8
		c-0.4-0.1-0.7-0.4-0.8-0.8c-0.4,1.2,0.2,2.5,1.3,2.9c1.2,0.4,2.5-0.2,2.9-1.3c0.4-1.2-0.2-2.5-1.3-2.9
		C184.4,40.2,184.2,40.1,183.9,40.1L183.9,40.1z"/>
</g>
</svg>
